<svg xmlns="http://www.w3.org/2000/svg" viewBox="0 0 600 400" role="img" aria-label="Cartões de visita premium"><rect width="600" height="400" fill="#FFD400"/><g transform="rotate(-8 280 210)"><rect x="100" y="110" width="340" height="200" rx="8" fill="#14141A" opacity=".25" transform="translate(12 12)"/><rect x="100" y="110" width="340" height="200" rx="8" fill="#fff"/><circle cx="170" cy="190" r="26" fill="none" stroke="#C9A227" stroke-width="5"/><path d="M160 178v24M160 178h12a8 8 0 0 1 0 14h-12" fill="none" stroke="#C9A227" stroke-width="5"/><rect x="220" y="176" width="170" height="12" rx="6" fill="#14141A"/><rect x="220" y="198" width="110" height="8" rx="4" fill="#9a9aa4"/><rect x="124" y="262" width="200" height="6" rx="3" fill="#9a9aa4"/><rect x="100" y="110" width="340" height="10" fill="#C9A227"/></g><g transform="rotate(7 440 130)"><rect x="370" y="70" width="190" height="112" rx="6" fill="#14141A"/><circle cx="410" cy="110" r="14" fill="#C9A227"/><rect x="436" y="102" width="100" height="9" rx="4.5" fill="#fff"/><rect x="436" y="118" width="64" height="6" rx="3" fill="#9a9aa4"/></g></svg>
